# xmcd
#
# Track frame offsets:
#	150
#	9697
#	19541
#	28706
#	38191
#	48729
#	59701
#	69717
#	80368
#	90010
#	100352
#	112696
#	124792
#	133404
#	142934
#	153158
#	163060
#	173594
#	181632
#	191849
#
# Disc length: 2679 seconds
#
# Revision: 0
# Processed by: cddbd v1.5.2PL0 Copyright (c) Steve Scherf et al.
# Submitted via: EasyCDDAExtractor 2010.6.0.0
#
DISCID=040a7514
DTITLE=Fats Domino - Ain't That A Shame
DYEAR=1900
DGENRE=Rock and Roll
TTITLE0=The Girl I Love
TTITLE1=Nobody Loves Me
TTITLE2=You Done Me Wrong
TTITLE3=Thinking Of You
TTITLE4=Don't You Know
TTITLE5=Ain't It A Shame
TTITLE6=La La
TTITLE7=All By Myself
TTITLE8=I Can't Go On (Rosalie)
TTITLE9=Poor Me
TTITLE10=Bo Weevil
TTITLE11=Don't Blame It On Me
TTITLE12=I'm In Love Again
TTITLE13=My Blue Heaven
TTITLE14=When My Dreamboat Comes Home
TTITLE15=So Long
TTITLE16=Blueberry Hill
TTITLE17=Honey Chile
TTITLE18=Blue Monday
TTITLE19=What's The Reason I'm Not Pleasing You
EXTD=
EXTT0=
EXTT1=
EXTT2=
EXTT3=
EXTT4=
EXTT5=
EXTT6=
EXTT7=
EXTT8=
EXTT9=
EXTT10=
EXTT11=
EXTT12=
EXTT13=
EXTT14=
EXTT15=
EXTT16=
EXTT17=
EXTT18=
EXTT19=
PLAYORDER=
